<?xml version="1.0" encoding="utf-8"?>
<svg width="54" height="54" viewBox="0 0 200 200" xmlns="http://www.w3.org/2000/svg">
  <rect x="0" y="0" rx="15" ry="15" width="200" height="200" style="fill:#f43f5e;opacity:1;"/>
    <g fill="white"  transform="translate(13, 11) scale(0.8)">
      <path d="M 91.377 176.962 L 34.11 176.962 L 34.11 169.228 L 38.345 169.228 C 39.8 169.232 41.254 169.144 42.699 168.966 C 43.742 168.836 44.78 168.647 45.803 168.4 C 48.074 167.847 49.915 166.681 51.327 164.901 C 52.344 163.618 52.994 161.873 53.279 159.665 C 53.391 158.745 53.446 157.818 53.444 156.891 L 53.444 54.693 L 35.767 54.693 C 32.628 54.693 30.048 55.2 28.029 56.217 C 26.629 56.9 25.426 57.928 24.534 59.204 C 22.875 61.621 21.709 64.34 21.103 67.208 C 20.915 68.061 20.77 68.925 20.667 69.792 L 19.747 77.71 L 10.171 77.71 L 11.092 45.486 L 114.763 45.486 L 115.684 77.71 L 106.109 77.71 L 105.188 69.792 C 104.938 67.62 104.404 65.488 103.602 63.452 C 103.003 61.954 102.238 60.53 101.321 59.204 C 100.22 57.658 98.682 56.477 96.902 55.82 C 94.999 55.069 92.666 54.693 89.904 54.693 L 72.043 54.693 L 72.043 155.97 C 72.039 156.967 72.092 157.963 72.202 158.955 C 72.474 161.306 73.096 163.166 74.068 164.533 C 75.419 166.436 77.26 167.694 79.592 168.308 C 81.254 168.739 82.952 169.018 84.664 169.138 C 85.489 169.2 86.314 169.228 87.142 169.228 L 91.377 169.228 L 91.377 176.962 Z M 148.921 176.962 C 149.267 177.054 149.615 177.144 149.965 177.228 C 154.321 178.278 159.282 178.804 164.85 178.804 C 165.118 178.804 165.386 178.802 165.656 178.8 C 174.523 178.716 182.265 177.245 188.88 174.384 C 190.384 173.738 191.849 173.003 193.271 172.189 C 197.807 169.638 201.692 166.071 204.624 161.771 C 206.744 158.595 208.264 155.06 209.109 151.336 C 209.821 148.206 210.169 145.002 210.148 141.791 C 210.158 139.424 209.952 137.061 209.53 134.733 C 208.947 131.443 207.785 128.284 206.097 125.403 C 204.704 123.077 203.042 120.92 201.148 118.98 C 199.092 116.881 196.833 114.993 194.404 113.342 C 193.997 113.061 193.586 112.787 193.175 112.517 C 190.629 110.848 187.834 109.241 184.788 107.701 C 181.881 106.238 178.914 104.894 175.898 103.674 C 173.701 102.768 171.522 101.819 169.365 100.824 C 167.346 99.889 165.486 98.973 163.784 98.072 C 162.139 97.209 160.528 96.282 158.957 95.296 C 154.783 92.657 151.806 89.649 150.026 86.273 C 149.826 85.892 149.638 85.506 149.464 85.113 C 148.698 83.396 148.14 81.5 147.792 79.423 C 147.491 77.577 147.346 75.711 147.356 73.843 C 147.356 67.46 149.32 62.365 153.249 58.56 C 154.065 57.768 154.953 57.058 155.904 56.434 C 158 55.059 160.426 54.079 163.186 53.496 C 165.369 53.052 167.593 52.835 169.821 52.851 C 174.977 52.851 179.059 54.018 182.067 56.35 C 185.074 58.683 187.223 61.629 188.512 65.189 C 189.801 68.749 190.445 72.432 190.445 76.237 C 190.959 76.237 191.472 76.223 191.988 76.194 C 193.49 76.108 194.881 75.894 196.158 75.548 C 197.921 75.094 199.576 74.296 201.033 73.199 C 202.766 71.881 204.006 70.015 204.546 67.906 C 204.853 66.717 205.003 65.496 204.992 64.268 C 204.99 62.177 204.514 60.113 203.601 58.232 C 202.895 56.786 202.001 55.442 200.941 54.232 C 200.45 53.666 199.93 53.126 199.382 52.614 C 196.812 50.214 193.434 48.205 189.248 46.591 C 188.252 46.208 187.239 45.868 186.214 45.576 C 181.739 44.289 176.52 43.644 170.558 43.644 C 167.876 43.638 165.199 43.808 162.542 44.156 C 158.167 44.708 153.893 45.868 149.842 47.603 C 143.765 50.243 138.978 54.048 135.479 59.02 C 133.58 61.725 132.181 64.747 131.346 67.943 C 130.583 70.891 130.209 73.927 130.231 76.974 C 130.219 79.679 130.438 82.377 130.886 85.045 C 131.43 88.346 132.451 91.55 133.914 94.559 C 135.039 96.832 136.424 98.966 138.045 100.92 C 140.126 103.414 142.511 105.638 145.147 107.541 C 145.889 108.083 146.642 108.611 147.409 109.123 C 152.033 112.212 157.601 115.122 164.113 117.853 C 166.341 118.755 168.551 119.709 170.738 120.713 C 172.776 121.655 174.648 122.581 176.35 123.496 C 177.989 124.368 179.589 125.311 181.146 126.324 C 181.827 126.772 182.498 127.238 183.153 127.727 C 184.549 128.771 185.778 129.845 186.846 130.948 C 188.06 132.185 189.115 133.571 189.985 135.07 C 190.118 135.304 190.245 135.541 190.367 135.78 C 191.223 137.46 191.838 139.332 192.215 141.392 C 192.516 143.105 192.663 144.84 192.655 146.579 C 192.669 148.664 192.463 150.745 192.039 152.787 C 191.21 157.069 188.962 160.948 185.657 163.796 C 182.56 166.446 178.677 168.216 174.01 169.106 C 171.473 169.572 168.899 169.797 166.323 169.781 C 165.991 169.781 165.66 169.777 165.328 169.766 C 163.188 169.707 161.206 169.447 159.385 168.989 C 156.823 168.377 154.419 167.236 152.328 165.638 C 151.195 164.762 150.145 163.784 149.189 162.72 C 147.121 160.388 145.5 157.693 144.41 154.773 C 142.691 150.293 141.709 145.536 141.464 140.502 C 138.64 140.502 136.246 141.024 134.282 142.068 C 132.318 143.111 130.814 144.554 129.771 146.395 C 129.224 147.363 128.819 148.404 128.572 149.488 C 128.32 150.587 128.197 151.713 128.206 152.84 C 128.204 153.202 128.212 153.562 128.226 153.924 C 128.326 157.186 129.104 160.39 130.507 163.336 C 131.058 164.484 131.712 165.58 132.459 166.612 C 133.853 168.516 135.522 170.206 137.413 171.622 C 139.09 172.897 140.997 174.008 143.135 174.953 C 145.007 175.772 146.943 176.443 148.921 176.962 Z"/>
    </g>
</svg>